<?xml version="1.0" encoding="utf-8"?>
<!-- Generator: Adobe Illustrator 27.7.0, SVG Export Plug-In . SVG Version: 6.00 Build 0)  -->
<svg version="1.1" id="Layer_1" xmlns="http://www.w3.org/2000/svg" xmlns:xlink="http://www.w3.org/1999/xlink" x="0px" y="0px"
	 viewBox="0 0 88.27 111.74" style="enable-background:new 0 0 88.27 111.74;" xml:space="preserve">
<style type="text/css">
	.st0{fill:url(#SVGID_1_);}
	.st1{fill:url(#SVGID_00000139268636630321762240000006048101078493646004_);}
	.st2{opacity:0.2;fill:url(#SVGID_00000013915548750175606970000012469872261911081889_);}
	.st3{opacity:0.2;fill:url(#SVGID_00000170244098930853127910000004204936801183066038_);}
	.st4{opacity:0.2;fill:url(#SVGID_00000059297608040097127320000006806628912526599821_);}
	.st5{opacity:0.2;fill:url(#SVGID_00000008827919583290226080000012479854925849800838_);}
</style>
<g>
	<g>
		<g>
			<radialGradient id="SVGID_1_" cx="46.0299" cy="-3.3383" r="118.0225" gradientUnits="userSpaceOnUse">
				<stop  offset="0" style="stop-color:#EBC27B"/>
				<stop  offset="0.1629" style="stop-color:#E6BD77"/>
				<stop  offset="0.3671" style="stop-color:#D6AE6C"/>
				<stop  offset="0.5924" style="stop-color:#BD9559"/>
				<stop  offset="0.6784" style="stop-color:#B18A50"/>
			</radialGradient>
			<polygon class="st0" points="49.32,55.89 44.13,50.71 38.95,55.89 44.13,61.07 			"/>
			
				<radialGradient id="SVGID_00000110460331871255322290000000728171233411774876_" cx="46.0299" cy="-3.3383" r="118.0225" gradientUnits="userSpaceOnUse">
				<stop  offset="0" style="stop-color:#EBC27B"/>
				<stop  offset="0.1629" style="stop-color:#E6BD77"/>
				<stop  offset="0.3671" style="stop-color:#D6AE6C"/>
				<stop  offset="0.5924" style="stop-color:#BD9559"/>
				<stop  offset="0.6784" style="stop-color:#B18A50"/>
			</radialGradient>
			<path style="fill:url(#SVGID_00000110460331871255322290000000728171233411774876_);" d="M72.87,55.87l13.17-13.16L44.13,0.8
				L25.79,19.14l5.19,5.19l7.97,7.99l5.18,5.19l18.35,18.38L44.13,74.23L20.58,50.68l-5.19,5.19L2.23,69.03l41.9,41.91l41.91-41.91
				L72.87,55.87L72.87,55.87z M40.47,96.89L12.6,69.03l7.98-7.97l19.88,19.88V96.89z M44.13,27.13l-7.97-7.98l7.97-7.97l31.53,31.53
				l-7.97,7.97L44.13,27.13z M75.63,69.06L47.8,96.89V80.94l19.86-19.86L75.63,69.06z"/>
		</g>
		<g>
			
				<linearGradient id="SVGID_00000125570703746854067780000005050128271932668094_" gradientUnits="userSpaceOnUse" x1="66.9462" y1="55.6065" x2="56.8376" y2="44.8914">
				<stop  offset="0.1287" style="stop-color:#241F20"/>
				<stop  offset="0.2725" style="stop-color:#433E3F"/>
				<stop  offset="0.5881" style="stop-color:#918E8F"/>
				<stop  offset="1" style="stop-color:#FFFFFF"/>
			</linearGradient>
			<polygon style="opacity:0.2;fill:url(#SVGID_00000125570703746854067780000005050128271932668094_);" points="67.69,50.68 
				62.48,55.89 50.53,43.92 55.91,38.9 			"/>
			
				<linearGradient id="SVGID_00000086666817341488576860000015912553223431003832_" gradientUnits="userSpaceOnUse" x1="72.5543" y1="743.5687" x2="65.7249" y2="736.3295" gradientTransform="matrix(-1 0 0 -1 141.5923 800.4936)">
				<stop  offset="0.1287" style="stop-color:#241F20"/>
				<stop  offset="0.2725" style="stop-color:#433E3F"/>
				<stop  offset="0.5881" style="stop-color:#918E8F"/>
				<stop  offset="1" style="stop-color:#FFFFFF"/>
			</linearGradient>
			<polygon style="opacity:0.2;fill:url(#SVGID_00000086666817341488576860000015912553223431003832_);" points="67.67,61.08 
				72.93,55.91 80.96,63.95 75.63,69.06 			"/>
			
				<linearGradient id="SVGID_00000001630945234802395210000017232917600709597087_" gradientUnits="userSpaceOnUse" x1="45.3885" y1="103.9099" x2="56.4069" y2="93.9024">
				<stop  offset="0.1287" style="stop-color:#241F20"/>
				<stop  offset="0.2725" style="stop-color:#433E3F"/>
				<stop  offset="0.5881" style="stop-color:#918E8F"/>
				<stop  offset="1" style="stop-color:#FFFFFF"/>
			</linearGradient>
			<polygon style="opacity:0.2;fill:url(#SVGID_00000001630945234802395210000017232917600709597087_);" points="47.8,96.89 
				47.8,107.27 60.74,94.33 55.72,88.97 			"/>
			
				<linearGradient id="SVGID_00000029753403396355017820000009678676541348417152_" gradientUnits="userSpaceOnUse" x1="42.2078" y1="103.9099" x2="53.2261" y2="93.9024" gradientTransform="matrix(-1 0 0 1 85.0885 0)">
				<stop  offset="0.1287" style="stop-color:#241F20"/>
				<stop  offset="0.2725" style="stop-color:#433E3F"/>
				<stop  offset="0.5881" style="stop-color:#918E8F"/>
				<stop  offset="1" style="stop-color:#FFFFFF"/>
			</linearGradient>
			<polygon style="opacity:0.2;fill:url(#SVGID_00000029753403396355017820000009678676541348417152_);" points="40.47,96.89 
				40.47,107.27 27.53,94.33 32.55,88.97 			"/>
		</g>
	</g>
</g>
</svg>
