<?xml version="1.0" encoding="utf-8"?>
<!-- Generator: Adobe Illustrator 27.7.0, SVG Export Plug-In . SVG Version: 6.00 Build 0)  -->
<svg version="1.1" id="Layer_1" xmlns="http://www.w3.org/2000/svg" xmlns:xlink="http://www.w3.org/1999/xlink" x="0px" y="0px"
	 viewBox="0 0 367.34 115.5" style="enable-background:new 0 0 367.34 115.5;" xml:space="preserve">
<style type="text/css">
	.st0{fill:url(#SVGID_1_);}
	.st1{fill:url(#SVGID_00000039834823122927951970000004031938608654585227_);}
	.st2{opacity:0.2;fill:url(#SVGID_00000133507591695201974600000012309130540579419527_);}
	.st3{opacity:0.2;fill:url(#SVGID_00000114067978653530482280000012454102581498230952_);}
	.st4{opacity:0.2;fill:url(#SVGID_00000121960822624156908990000014702556872991104131_);}
	.st5{opacity:0.2;fill:url(#SVGID_00000154402702069321332950000016867181272976027818_);}
	.st6{fill:#FEFEFE;}
</style>
<g>
	<g>
		<g>
			<radialGradient id="SVGID_1_" cx="49.2386" cy="-1.4546" r="118.0225" gradientUnits="userSpaceOnUse">
				<stop  offset="0" style="stop-color:#EBC27B"/>
				<stop  offset="0.1629" style="stop-color:#E6BD77"/>
				<stop  offset="0.3671" style="stop-color:#D6AE6C"/>
				<stop  offset="0.5924" style="stop-color:#BD9559"/>
				<stop  offset="0.6784" style="stop-color:#B18A50"/>
			</radialGradient>
			<polygon class="st0" points="52.53,57.77 47.34,52.59 42.16,57.77 47.34,62.95 			"/>
			
				<radialGradient id="SVGID_00000133491098292068077080000012214481530864723871_" cx="49.2386" cy="-1.4546" r="118.0225" gradientUnits="userSpaceOnUse">
				<stop  offset="0" style="stop-color:#EBC27B"/>
				<stop  offset="0.1629" style="stop-color:#E6BD77"/>
				<stop  offset="0.3671" style="stop-color:#D6AE6C"/>
				<stop  offset="0.5924" style="stop-color:#BD9559"/>
				<stop  offset="0.6784" style="stop-color:#B18A50"/>
			</radialGradient>
			<path style="fill:url(#SVGID_00000133491098292068077080000012214481530864723871_);" d="M76.08,57.75l13.17-13.16L47.34,2.68
				L29,21.02l5.19,5.19l7.97,7.99l5.18,5.19l18.35,18.38L47.34,76.12L23.79,52.57l-5.19,5.19L5.44,70.92l41.9,41.91l41.91-41.91
				L76.08,57.75L76.08,57.75z M43.68,98.78L15.81,70.92l7.98-7.97l19.88,19.88V98.78z M47.34,29.01l-7.97-7.98l7.97-7.97
				l31.53,31.53l-7.97,7.97L47.34,29.01z M78.84,70.94L51.01,98.78V82.82l19.86-19.86L78.84,70.94z"/>
		</g>
		<g>
			
				<linearGradient id="SVGID_00000100347998981809152600000009784533150719604641_" gradientUnits="userSpaceOnUse" x1="70.1548" y1="57.4902" x2="60.0463" y2="46.7752">
				<stop  offset="0.1287" style="stop-color:#241F20"/>
				<stop  offset="0.2725" style="stop-color:#433E3F"/>
				<stop  offset="0.5881" style="stop-color:#918E8F"/>
				<stop  offset="1" style="stop-color:#FFFFFF"/>
			</linearGradient>
			<polygon style="opacity:0.2;fill:url(#SVGID_00000100347998981809152600000009784533150719604641_);" points="70.9,52.56 
				65.69,57.77 53.74,45.8 59.12,40.79 			"/>
			
				<linearGradient id="SVGID_00000135668825119394568270000015309361728436028560_" gradientUnits="userSpaceOnUse" x1="348.4149" y1="745.4524" x2="341.5854" y2="738.2132" gradientTransform="matrix(-1 0 0 -1 420.6615 804.261)">
				<stop  offset="0.1287" style="stop-color:#241F20"/>
				<stop  offset="0.2725" style="stop-color:#433E3F"/>
				<stop  offset="0.5881" style="stop-color:#918E8F"/>
				<stop  offset="1" style="stop-color:#FFFFFF"/>
			</linearGradient>
			<polygon style="opacity:0.2;fill:url(#SVGID_00000135668825119394568270000015309361728436028560_);" points="70.87,62.96 
				76.14,57.79 84.17,65.83 78.84,70.94 			"/>
			
				<linearGradient id="SVGID_00000034050196247399799220000015373272275081247659_" gradientUnits="userSpaceOnUse" x1="48.5972" y1="105.7936" x2="59.6155" y2="95.7862">
				<stop  offset="0.1287" style="stop-color:#241F20"/>
				<stop  offset="0.2725" style="stop-color:#433E3F"/>
				<stop  offset="0.5881" style="stop-color:#918E8F"/>
				<stop  offset="1" style="stop-color:#FFFFFF"/>
			</linearGradient>
			<polygon style="opacity:0.2;fill:url(#SVGID_00000034050196247399799220000015373272275081247659_);" points="51.01,98.78 
				51.01,109.15 63.95,96.22 58.93,90.86 			"/>
			
				<linearGradient id="SVGID_00000101788477253371989710000004611024844102733246_" gradientUnits="userSpaceOnUse" x1="318.0683" y1="105.7936" x2="329.0866" y2="95.7862" gradientTransform="matrix(-1 0 0 1 364.1577 0)">
				<stop  offset="0.1287" style="stop-color:#241F20"/>
				<stop  offset="0.2725" style="stop-color:#433E3F"/>
				<stop  offset="0.5881" style="stop-color:#918E8F"/>
				<stop  offset="1" style="stop-color:#FFFFFF"/>
			</linearGradient>
			<polygon style="opacity:0.2;fill:url(#SVGID_00000101788477253371989710000004611024844102733246_);" points="43.68,98.78 
				43.68,109.15 30.74,96.22 35.76,90.86 			"/>
		</g>
	</g>
	<g>
		<g>
			<g>
				<g>
					<path class="st6" d="M110.57,40.54h14.01c7.69,0,11.19,3.4,11.19,8.63c0,3.75-1.73,5.87-4.98,6.9
						c5.13,1.38,7.35,4.59,7.35,8.88c0,5.57-3.85,10.11-12.97,10.11h-14.6V40.54z M124.28,54.54c2.22,0,4.09-1.18,4.09-3.99
						c0-2.81-1.87-3.8-4.09-3.8h-6.31v7.79H124.28z M124.92,68.84c4.14,0,5.57-2.22,5.57-4.74c0-2.61-1.43-4.88-5.57-4.88h-6.95
						v9.62H124.92z"/>
					<path class="st6" d="M142.78,62.19c0-9.57,6.07-13.26,12.87-13.26c6.61,0,12.18,3.45,12.18,13.16c0,0.94-0.05,1.43-0.15,1.97
						h-18.05c0.39,4.29,2.61,6.02,6.16,6.02c3.3,0,4.73-1.33,5.33-3.4h6.36c-1.28,5.87-5.82,8.88-11.78,8.88
						C149.19,75.55,142.78,71.95,142.78,62.19z M161.02,59.82c-0.1-2.96-1.63-5.42-5.57-5.42c-3.35,0-5.32,1.87-5.82,5.42H161.02z"
						/>
					<path class="st6" d="M175.43,67.36V54.99h-4.34v-5.57h4.34v-6.61h7.2v6.61h5.08v5.57h-5.08v11.34c0,1.97,0.59,3.3,3.26,3.3
						c0.54,0,0.99,0,2.02-0.1v5.37c-1.13,0.3-2.51,0.49-3.94,0.49C178.83,75.4,175.43,73.09,175.43,67.36z"/>
					<path class="st6" d="M192.05,68.25c0-5.67,4.64-6.9,9.07-7.54l4.34-0.64c2.37-0.35,3.11-0.74,3.11-2.17v-0.35
						c0-2.71-1.78-3.45-3.99-3.45c-2.32,0-4.39,0.74-4.39,3.4V58h-6.75v-1.18c0-5.03,3.35-7.89,11.34-7.89
						c7.74,0,10.85,2.76,10.85,8.33v17.8h-6.85v-4.54h-0.3c-0.49,1.38-2.56,5.03-8.19,5.03C196.09,75.55,192.05,73.53,192.05,68.25z
						 M202.75,70.42c3.4,0,5.82-2.27,5.82-4.29v-2.86c-0.39,0.59-1.63,0.79-2.76,0.99l-3.6,0.64c-2.22,0.35-2.96,1.43-2.96,2.76
						C199.25,69.24,200.28,70.42,202.75,70.42z"/>
					<path class="st6" d="M219.52,49.41h7.35l6.41,18.74h0.25l6.41-18.74h7.3l-9.32,25.64h-9.07L219.52,49.41z"/>
					<path class="st6" d="M249.51,68.25c0-5.67,4.64-6.9,9.07-7.54l4.34-0.64c2.37-0.35,3.11-0.74,3.11-2.17v-0.35
						c0-2.71-1.78-3.45-4-3.45c-2.32,0-4.39,0.74-4.39,3.4V58h-6.76v-1.18c0-5.03,3.35-7.89,11.34-7.89
						c7.74,0,10.85,2.76,10.85,8.33v17.8h-6.86v-4.54h-0.3c-0.49,1.38-2.56,5.03-8.19,5.03C253.55,75.55,249.51,73.53,249.51,68.25z
						 M260.21,70.42c3.4,0,5.82-2.27,5.82-4.29v-2.86c-0.39,0.59-1.63,0.79-2.76,0.99l-3.6,0.64c-2.22,0.35-2.96,1.43-2.96,2.76
						C256.7,69.24,257.74,70.42,260.21,70.42z"/>
					<path class="st6" d="M280.18,40.54h7.2v34.52h-7.2V40.54z"/>
					<path class="st6" d="M294.48,40.54h7.2v34.52h-7.2V40.54z"/>
					<path class="st6" d="M307.55,62.19c0-9.57,6.07-13.26,12.87-13.26c6.61,0,12.18,3.45,12.18,13.16c0,0.94-0.05,1.43-0.15,1.97
						h-18.05c0.39,4.29,2.61,6.02,6.17,6.02c3.3,0,4.73-1.33,5.33-3.4h6.36c-1.28,5.87-5.82,8.88-11.78,8.88
						C313.97,75.55,307.55,71.95,307.55,62.19z M325.8,59.82c-0.1-2.96-1.63-5.42-5.57-5.42c-3.35,0-5.33,1.87-5.82,5.42H325.8z"/>
					<path class="st6" d="M344.49,76.24c0.54-1.28,0.54-2.07-0.05-3.5l-9.42-23.33h7.4l5.97,16.57l6.12-16.57h7.4l-10.5,25.84
						c-3.21,7.94-6.46,10.46-13.81,9.67v-6.07C342.67,79.49,343.9,77.62,344.49,76.24z"/>
					<path class="st6" d="M109.99,86.86h2.05v23.49h-2.05V86.86z"/>
					<path class="st6" d="M124.62,94.27c-3.49,0-5.6,2.21-5.6,5.74v10.34h-1.98V92.9h1.98v3.35h0.03c0.3-1.04,1.98-3.69,6.14-3.69
						c3.42,0,6.34,1.78,6.34,7.11v10.67h-1.98v-10.34C129.55,96.49,128.11,94.27,124.62,94.27z"/>
					<path class="st6" d="M134.66,92.9h2.01l6.07,15.57h0.07l6.07-15.57h2.01l-6.88,17.45h-2.45L134.66,92.9z"/>
					<path class="st6" d="M152.71,101.69c0-6.31,3.56-9.13,7.99-9.13c4.5,0,7.62,2.92,7.62,8.49c0,0.57-0.03,0.91-0.1,1.21h-13.59
						c0.13,4.53,2.35,6.81,6.28,6.81c2.11,0,4.4-0.67,5.34-3.39h1.84c-1.21,3.83-4.16,5-7.21,5
						C155.97,110.68,152.71,107.7,152.71,101.69z M166.41,100.69c-0.03-4.3-2.28-6.51-5.74-6.51c-3.29,0-5.84,2.12-6.04,6.51H166.41
						z"/>
					<path class="st6" d="M171.44,105.65h1.81c0.4,2.62,2.89,3.42,5.3,3.42c2.62,0,4.76-0.97,4.76-3.46c0-2.01-1.34-2.58-3.46-3.09
						l-3.32-0.81c-2.92-0.7-4.53-2.15-4.53-4.56c0-2.99,2.52-4.6,6.38-4.6c3.73,0,6.34,1.47,6.58,4.9h-1.68
						c-0.44-2.45-2.21-3.29-4.87-3.29c-2.85,0-4.46,0.94-4.46,3.02c0,1.51,0.87,2.42,3.26,2.99l3.26,0.77
						c2.95,0.67,4.9,1.74,4.9,4.63c0,3.86-3.46,5.1-6.85,5.1C174.77,110.68,171.68,109.17,171.44,105.65z"/>
					<path class="st6" d="M190.94,106.62V94.58h-2.78V92.9h2.78v-4.33h1.98v4.33h3.49v1.68h-3.49v11.61c0,2.05,0.74,2.72,2.65,2.72
						c0.4,0,0.7,0,1.11-0.07v1.58c-0.5,0.1-1.07,0.17-1.71,0.17C192.66,110.59,190.94,109.64,190.94,106.62z"/>
					<path class="st6" d="M219.17,94.27c-3.15,0-4.97,2.21-4.97,5.74v10.34h-1.98v-10.34c0-3.52-1.34-5.74-4.53-5.74
						s-5.03,2.21-5.03,5.74v10.34h-1.98V92.9h1.98v3.35c0.27-1.04,1.71-3.69,5.64-3.69c2.45,0,4.6,1.04,5.47,3.86
						c0.5-1.28,1.98-3.86,5.97-3.86c3.29,0,5.97,1.78,5.97,7.11v10.67h-1.98v-10.34C223.73,96.49,222.39,94.27,219.17,94.27z"/>
					<path class="st6" d="M229.88,101.69c0-6.31,3.56-9.13,7.99-9.13c4.5,0,7.62,2.92,7.62,8.49c0,0.57-0.03,0.91-0.1,1.21h-13.59
						c0.13,4.53,2.35,6.81,6.28,6.81c2.11,0,4.39-0.67,5.34-3.39h1.84c-1.21,3.83-4.16,5-7.22,5
						C233.13,110.68,229.88,107.7,229.88,101.69z M243.57,100.69c-0.03-4.3-2.28-6.51-5.74-6.51c-3.29,0-5.84,2.12-6.04,6.51H243.57
						z"/>
					<path class="st6" d="M257.2,94.27c-3.49,0-5.6,2.21-5.6,5.74v10.34h-1.98V92.9h1.98v3.35h0.03c0.3-1.04,1.98-3.69,6.14-3.69
						c3.42,0,6.34,1.78,6.34,7.11v10.67h-1.98v-10.34C262.13,96.49,260.69,94.27,257.2,94.27z"/>
					<path class="st6" d="M270.36,106.62V94.58h-2.79V92.9h2.79v-4.33h1.98v4.33h3.49v1.68h-3.49v11.61c0,2.05,0.74,2.72,2.65,2.72
						c0.4,0,0.71,0,1.11-0.07v1.58c-0.5,0.1-1.07,0.17-1.71,0.17C272.07,110.59,270.36,109.64,270.36,106.62z"/>
					<path class="st6" d="M279.08,105.65h1.81c0.4,2.62,2.89,3.42,5.3,3.42c2.62,0,4.76-0.97,4.76-3.46c0-2.01-1.34-2.58-3.46-3.09
						l-3.32-0.81c-2.92-0.7-4.53-2.15-4.53-4.56c0-2.99,2.52-4.6,6.38-4.6c3.73,0,6.34,1.47,6.58,4.9h-1.68
						c-0.44-2.45-2.21-3.29-4.87-3.29c-2.85,0-4.46,0.94-4.46,3.02c0,1.51,0.87,2.42,3.26,2.99l3.26,0.77
						c2.95,0.67,4.9,1.74,4.9,4.63c0,3.86-3.46,5.1-6.85,5.1C282.41,110.68,279.32,109.17,279.08,105.65z"/>
				</g>
			</g>
		</g>
	</g>
</g>
</svg>
