<?xml version="1.0" encoding="utf-8"?>
<!-- Generator: Adobe Illustrator 27.8.1, SVG Export Plug-In . SVG Version: 6.00 Build 0)  -->
<svg version="1.1" id="Layer_1" xmlns="http://www.w3.org/2000/svg" xmlns:xlink="http://www.w3.org/1999/xlink" x="0px" y="0px"
	 viewBox="0 0 120.1 53.5" style="enable-background:new 0 0 120.1 53.5;" xml:space="preserve">
<style type="text/css">
	.st0{fill:url(#SVGID_1_);}
	.st1{fill:url(#SVGID_00000041281964365473879890000016761884271363113130_);}
	.st2{fill:url(#SVGID_00000082334798220340768360000004905191014483592870_);}
	.st3{fill:url(#SVGID_00000139261869238662205340000017173139948001744274_);}
	.st4{fill:url(#SVGID_00000018923758173511231390000006084408749257690768_);}
	.st5{fill:url(#SVGID_00000131369856673430232910000014552451414056383374_);}
	.st6{fill:#DCDCDF;}
	.st7{fill:#294340;}
</style>
<g>
	<g>
		<g>
			<g>
				<radialGradient id="SVGID_1_" cx="21.1033" cy="-1.2021" r="55.7197" gradientUnits="userSpaceOnUse">
					<stop  offset="0" style="stop-color:#E8BF7A"/>
					<stop  offset="0.1629" style="stop-color:#E3BA76"/>
					<stop  offset="0.3671" style="stop-color:#D3AB6B"/>
					<stop  offset="0.5924" style="stop-color:#BA9258"/>
					<stop  offset="0.6784" style="stop-color:#AE8750"/>
				</radialGradient>
				<polygon class="st0" points="22.7,26.8 20.2,24.3 17.8,26.8 20.2,29.2 				"/>
				
					<radialGradient id="SVGID_00000119799041789249451960000007398360282765071489_" cx="21.1033" cy="-1.2021" r="55.7197" gradientUnits="userSpaceOnUse">
					<stop  offset="0" style="stop-color:#E8BF7A"/>
					<stop  offset="0.1629" style="stop-color:#E3BA76"/>
					<stop  offset="0.3671" style="stop-color:#D3AB6B"/>
					<stop  offset="0.5924" style="stop-color:#BA9258"/>
					<stop  offset="0.6784" style="stop-color:#AE8750"/>
				</radialGradient>
				<path style="fill:url(#SVGID_00000119799041789249451960000007398360282765071489_);" d="M33.8,26.7l6.2-6.2L20.2,0.8l-8.7,8.7
					l2.4,2.5l3.8,3.8l2.4,2.5l8.7,8.7l-8.7,8.7L9.1,24.3l-2.4,2.4L0.4,33l19.8,19.8L40,33L33.8,26.7L33.8,26.7z M18.5,46.1L5.3,33
					l3.8-3.8l9.4,9.4V46.1z M20.2,13.2l-3.8-3.8l3.8-3.8l14.9,14.9l-3.8,3.8L20.2,13.2z M35.1,33L21.9,46.1v-7.5l9.4-9.4L35.1,33z"
					/>
			</g>
			<g>
				
					<linearGradient id="SVGID_00000038385062818178294160000011031759068473444254_" gradientUnits="userSpaceOnUse" x1="30.9781" y1="26.6264" x2="26.2058" y2="21.5677">
					<stop  offset="0.1287" style="stop-color:#9F7D4D"/>
					<stop  offset="0.7028" style="stop-color:#BE985F"/>
					<stop  offset="1" style="stop-color:#D0A869"/>
				</linearGradient>
				<polygon style="fill:url(#SVGID_00000038385062818178294160000011031759068473444254_);" points="31.3,24.3 28.9,26.8 
					23.2,21.1 25.8,18.7 				"/>
				
					<linearGradient id="SVGID_00000097480384010949132930000012419271828743810985_" gradientUnits="userSpaceOnUse" x1="140.7251" y1="713.9492" x2="137.5009" y2="710.5314" gradientTransform="matrix(-1 0 0 -1 172.6908 741.198)">
					<stop  offset="0.1287" style="stop-color:#9F7D4D"/>
					<stop  offset="1" style="stop-color:#B38B53"/>
				</linearGradient>
				<polygon style="fill:url(#SVGID_00000097480384010949132930000012419271828743810985_);" points="31.3,29.2 33.8,26.8 
					37.6,30.6 35.1,33 				"/>
				
					<linearGradient id="SVGID_00000061439012898520194500000003031926961937182889_" gradientUnits="userSpaceOnUse" x1="20.8005" y1="49.431" x2="26.0024" y2="44.7063">
					<stop  offset="0.1287" style="stop-color:#906F42"/>
					<stop  offset="1" style="stop-color:#AE8750"/>
				</linearGradient>
				<polygon style="fill:url(#SVGID_00000061439012898520194500000003031926961937182889_);" points="21.9,46.1 21.9,51 28,44.9 
					25.7,42.4 				"/>
				
					<linearGradient id="SVGID_00000025440431434897850270000017040647843006009020_" gradientUnits="userSpaceOnUse" x1="96.5704" y1="49.431" x2="101.7723" y2="44.7063" gradientTransform="matrix(-1 0 0 1 116.187 0)">
					<stop  offset="0.1287" style="stop-color:#906F42"/>
					<stop  offset="1" style="stop-color:#AE8750"/>
				</linearGradient>
				<polygon style="fill:url(#SVGID_00000025440431434897850270000017040647843006009020_);" points="18.5,46.1 18.5,51 12.4,44.9 
					14.7,42.4 				"/>
			</g>
		</g>
		<g>
			<g>
				<g>
					<g>
						<g>
							<path d="M53.3,29.9c2.1,0,3.1,0.9,3.1,2.4c0,1-0.5,1.6-1.4,1.9c1.4,0.4,2,1.3,2,2.5c0,1.7-1.2,2.8-3.6,2.8h-4.1v-9.6H53.3z
								 M53.2,33.9c0.7,0,1.1-0.4,1.1-1.1c0-0.7-0.5-1.1-1.1-1.1h-1.8v2.2H53.2z M53.4,37.8c1.1,0,1.6-0.6,1.6-1.3
								c0-0.8-0.5-1.4-1.6-1.4h-1.9v2.7H53.4z"/>
							<path d="M65.4,36.5h-5c0.1,1.2,0.7,1.7,1.8,1.7c0.8,0,1.2-0.3,1.4-1h1.8c-0.3,1.6-1.6,2.5-3.3,2.5c-1.9,0-3.6-1.1-3.6-3.7
								c0-2.6,1.6-3.7,3.6-3.7c1,0,1.8,0.3,2.5,0.9c0.6,0.6,0.9,1.6,0.9,2.9C65.4,36.2,65.4,36.4,65.4,36.5z M63.5,35.4
								c0-1-0.5-1.6-1.6-1.6c-1,0-1.5,0.5-1.6,1.6H63.5z"/>
							<path d="M71,38.1v1.6c-0.3,0-0.6,0-1.1,0c-1.5,0-2.4-0.7-2.4-2.2V34h-1.2v-1.5h1.2v-1.8h2v1.8h1.4V34h-1.4v3.2
								c0,0.6,0.3,0.9,0.8,0.9H71z"/>
							<path d="M78.7,34.6v4.9h-1.9v-1.3h-0.1c-0.1,0.5-0.8,1.4-2.3,1.4c-0.6,0-1.2-0.2-1.6-0.5c-0.5-0.3-0.7-0.8-0.7-1.5
								c0-1.4,1-1.9,2.5-2l1.4-0.2c0.6-0.1,0.7-0.2,0.7-0.7v-0.1c0-0.7-0.4-1-1.1-1c-0.8,0-1.2,0.3-1.2,0.9v0.1l-1.9,0v-0.3
								c0-1.5,1-2.2,3.1-2.2C77.8,32.3,78.7,33,78.7,34.6z M76.7,36.3c-0.1,0.1-0.3,0.2-0.7,0.2l-0.9,0.1c-0.6,0.1-1,0.3-1,0.8
								c0,0.4,0.3,0.8,1.1,0.8c1,0,1.5-0.6,1.5-1.2V36.3z"/>
							<path d="M79.8,32.4h2l1.8,5.2h0.1l1.8-5.2h2L85,39.6h-2.5L79.8,32.4z"/>
							<path d="M94.8,34.6v4.9h-1.9v-1.3h-0.1c-0.1,0.5-0.8,1.4-2.3,1.4c-0.6,0-1.2-0.2-1.6-0.5c-0.5-0.3-0.7-0.8-0.7-1.5
								c0-1.4,1-1.9,2.5-2l1.4-0.2c0.6-0.1,0.7-0.2,0.7-0.7v-0.1c0-0.7-0.4-1-1.1-1c-0.8,0-1.2,0.3-1.2,0.9v0.1l-1.9,0v-0.3
								c0-1.5,1-2.2,3.1-2.2C93.9,32.3,94.8,33,94.8,34.6z M92.8,36.3c-0.1,0.1-0.3,0.2-0.7,0.2l-0.9,0.1c-0.6,0.1-1,0.3-1,0.8
								c0,0.4,0.3,0.8,1.1,0.8c1,0,1.5-0.6,1.5-1.2V36.3z"/>
							<path d="M96.8,29.9h2v9.6h-2V29.9z"/>
							<path d="M100.8,29.9h2v9.6h-2V29.9z"/>
							<path d="M111.4,36.5h-5c0.1,1.2,0.7,1.7,1.8,1.7c0.8,0,1.2-0.3,1.4-1h1.8c-0.3,1.6-1.6,2.5-3.3,2.5c-1.9,0-3.6-1.1-3.6-3.7
								c0-2.6,1.6-3.7,3.6-3.7c1,0,1.8,0.3,2.5,0.9c0.6,0.6,0.9,1.6,0.9,2.9C111.4,36.2,111.4,36.4,111.4,36.5z M109.5,35.4
								c0-1-0.5-1.6-1.6-1.6c-1,0-1.5,0.5-1.6,1.6H109.5z"/>
							<path d="M112.8,40.6c0.2,0,0.4,0,0.5,0c0.9,0,1.2-0.3,1.4-0.8c0.1-0.2,0.1-0.3,0.1-0.5c0-0.1,0-0.3-0.1-0.5l-2.6-6.5h2.1
								l1.7,4.6l1.7-4.6h2.1l-2.9,7.2c-0.8,2-1.6,2.7-3.2,2.7c-0.2,0-0.4,0-0.7,0V40.6z"/>
							<path class="st6" d="M49.4,44.1H50v6.6h-0.6V44.1z"/>
							<path class="st6" d="M57.3,47.7v3h-0.6v-2.9c0-1-0.4-1.6-1.4-1.6c-1,0-1.6,0.6-1.6,1.6v2.9h-0.6v-4.9h0.6v0.9
								c0.1-0.4,0.7-1,1.7-1C56.6,45.7,57.3,46.3,57.3,47.7z"/>
							<path class="st6" d="M60.1,45.8h0.6l1.7,4.3h0l1.7-4.3h0.6l-1.9,4.9H62L60.1,45.8z"/>
							<path class="st6" d="M71.4,48.4h-3.8c0,1.2,0.7,1.9,1.8,1.9c0.8,0,1.3-0.3,1.5-0.9h0.5c-0.3,0.9-1,1.4-2,1.4
								c-1.4,0-2.3-0.9-2.3-2.5c0-1.7,1-2.5,2.2-2.5c1.3,0,2.1,0.9,2.1,2.4C71.4,48.2,71.4,48.3,71.4,48.4z M70.9,47.9
								c0-1.2-0.6-1.8-1.6-1.8c-1,0-1.6,0.6-1.7,1.8H70.9z"/>
							<path class="st6" d="M74.2,49.3h0.5c0.1,0.7,0.7,1,1.5,1c0.8,0,1.3-0.3,1.3-1c0-0.5-0.3-0.7-1-0.9l-0.9-0.2
								c-0.8-0.2-1.3-0.6-1.3-1.3c0-0.8,0.7-1.3,1.8-1.3c1,0,1.8,0.4,1.8,1.4h-0.5c-0.1-0.6-0.6-0.9-1.3-0.9c-0.8,0-1.2,0.3-1.2,0.8
								c0,0.4,0.3,0.7,0.9,0.8l0.9,0.2c0.9,0.2,1.4,0.5,1.4,1.3c0,0.5-0.2,0.9-0.6,1.1c-0.4,0.2-0.8,0.3-1.4,0.3
								C75.1,50.7,74.3,50.2,74.2,49.3z"/>
							<path class="st6" d="M83.2,50.2v0.4c-0.1,0-0.3,0-0.4,0c-0.8,0-1.2-0.4-1.2-1.1v-3.4h-0.8v-0.5h0.8v-1.2h0.6v1.2h1v0.5h-1
								v3.2c0,0.6,0.2,0.8,0.8,0.8H83.2z"/>
							<path class="st6" d="M93.2,47.7v3h-0.6v-2.9c0-1-0.4-1.6-1.3-1.6c-0.9,0-1.4,0.6-1.4,1.6v2.9h-0.6v-2.9c0-1-0.4-1.6-1.3-1.6
								c-0.9,0-1.4,0.6-1.4,1.6v2.9h-0.6v-4.9h0.6v0.9c0.1-0.4,0.6-1,1.6-1c0.7,0,1.3,0.3,1.5,1.1c0.1-0.3,0.3-0.5,0.6-0.7
								c0.3-0.2,0.6-0.3,1.1-0.3C92.5,45.7,93.2,46.3,93.2,47.7z"/>
							<path class="st6" d="M100.6,48.4h-3.8c0,1.2,0.7,1.9,1.8,1.9c0.8,0,1.3-0.3,1.5-0.9h0.5c-0.3,0.9-1,1.4-2,1.4
								c-1.4,0-2.3-0.9-2.3-2.5c0-1.7,1-2.5,2.2-2.5c1.3,0,2.1,0.9,2.1,2.4C100.6,48.2,100.6,48.3,100.6,48.4z M100.1,47.9
								c0-1.2-0.6-1.8-1.6-1.8c-1,0-1.6,0.6-1.7,1.8H100.1z"/>
							<path class="st6" d="M107.7,47.7v3h-0.6v-2.9c0-1-0.4-1.6-1.4-1.6c-1,0-1.6,0.6-1.6,1.6v2.9h-0.6v-4.9h0.6v0.9
								c0.1-0.4,0.7-1,1.7-1C107,45.7,107.7,46.3,107.7,47.7z"/>
							<path class="st6" d="M113,50.2v0.4c-0.1,0-0.3,0-0.4,0c-0.8,0-1.2-0.4-1.2-1.1v-3.4h-0.8v-0.5h0.8v-1.2h0.6v1.2h1v0.5h-1v3.2
								c0,0.6,0.2,0.8,0.8,0.8H113z"/>
							<path class="st6" d="M115.7,49.3h0.5c0.1,0.7,0.7,1,1.5,1c0.8,0,1.3-0.3,1.3-1c0-0.5-0.3-0.7-1-0.9l-0.9-0.2
								c-0.8-0.2-1.3-0.6-1.3-1.3c0-0.8,0.7-1.3,1.8-1.3s1.8,0.4,1.8,1.4H119c-0.1-0.6-0.6-0.9-1.3-0.9c-0.8,0-1.2,0.3-1.2,0.8
								c0,0.4,0.3,0.7,0.9,0.8l0.9,0.2c0.9,0.2,1.4,0.5,1.4,1.3c0,0.5-0.2,0.9-0.6,1.1c-0.4,0.2-0.8,0.3-1.4,0.3
								C116.6,50.7,115.8,50.2,115.7,49.3z"/>
						</g>
					</g>
				</g>
				<g>
					<g>
						<g>
							<path class="st7" d="M53.3,29.9c2.1,0,3.1,0.9,3.1,2.4c0,1-0.5,1.6-1.4,1.9c1.4,0.4,2,1.3,2,2.5c0,1.7-1.2,2.8-3.6,2.8h-4.1
								v-9.6H53.3z M53.2,33.9c0.7,0,1.1-0.4,1.1-1.1c0-0.7-0.5-1.1-1.1-1.1h-1.8v2.2H53.2z M53.4,37.8c1.1,0,1.6-0.6,1.6-1.3
								c0-0.8-0.5-1.4-1.6-1.4h-1.9v2.7H53.4z"/>
							<path class="st7" d="M65.4,36.5h-5c0.1,1.2,0.7,1.7,1.8,1.7c0.8,0,1.2-0.3,1.4-1h1.8c-0.3,1.6-1.6,2.5-3.3,2.5
								c-1.9,0-3.6-1.1-3.6-3.7c0-2.6,1.6-3.7,3.6-3.7c1,0,1.8,0.3,2.5,0.9c0.6,0.6,0.9,1.6,0.9,2.9C65.4,36.2,65.4,36.4,65.4,36.5z
								 M63.5,35.4c0-1-0.5-1.6-1.6-1.6c-1,0-1.5,0.5-1.6,1.6H63.5z"/>
							<path class="st7" d="M71,38.1v1.6c-0.3,0-0.6,0-1.1,0c-1.5,0-2.4-0.7-2.4-2.2V34h-1.2v-1.5h1.2v-1.8h2v1.8h1.4V34h-1.4v3.2
								c0,0.6,0.3,0.9,0.8,0.9H71z"/>
							<path class="st7" d="M78.7,34.6v4.9h-1.9v-1.3h-0.1c-0.1,0.5-0.8,1.4-2.3,1.4c-0.6,0-1.2-0.2-1.6-0.5
								c-0.5-0.3-0.7-0.8-0.7-1.5c0-1.4,1-1.9,2.5-2l1.4-0.2c0.6-0.1,0.7-0.2,0.7-0.7v-0.1c0-0.7-0.4-1-1.1-1
								c-0.8,0-1.2,0.3-1.2,0.9v0.1l-1.9,0v-0.3c0-1.5,1-2.2,3.1-2.2C77.8,32.3,78.7,33,78.7,34.6z M76.7,36.3
								c-0.1,0.1-0.3,0.2-0.7,0.2l-0.9,0.1c-0.6,0.1-1,0.3-1,0.8c0,0.4,0.3,0.8,1.1,0.8c1,0,1.5-0.6,1.5-1.2V36.3z"/>
							<path class="st7" d="M79.8,32.4h2l1.8,5.2h0.1l1.8-5.2h2L85,39.6h-2.5L79.8,32.4z"/>
							<path class="st7" d="M94.8,34.6v4.9h-1.9v-1.3h-0.1c-0.1,0.5-0.8,1.4-2.3,1.4c-0.6,0-1.2-0.2-1.6-0.5
								c-0.5-0.3-0.7-0.8-0.7-1.5c0-1.4,1-1.9,2.5-2l1.4-0.2c0.6-0.1,0.7-0.2,0.7-0.7v-0.1c0-0.7-0.4-1-1.1-1
								c-0.8,0-1.2,0.3-1.2,0.9v0.1l-1.9,0v-0.3c0-1.5,1-2.2,3.1-2.2C93.9,32.3,94.8,33,94.8,34.6z M92.8,36.3
								c-0.1,0.1-0.3,0.2-0.7,0.2l-0.9,0.1c-0.6,0.1-1,0.3-1,0.8c0,0.4,0.3,0.8,1.1,0.8c1,0,1.5-0.6,1.5-1.2V36.3z"/>
							<path class="st7" d="M96.8,29.9h2v9.6h-2V29.9z"/>
							<path class="st7" d="M100.8,29.9h2v9.6h-2V29.9z"/>
							<path class="st7" d="M111.4,36.5h-5c0.1,1.2,0.7,1.7,1.8,1.7c0.8,0,1.2-0.3,1.4-1h1.8c-0.3,1.6-1.6,2.5-3.3,2.5
								c-1.9,0-3.6-1.1-3.6-3.7c0-2.6,1.6-3.7,3.6-3.7c1,0,1.8,0.3,2.5,0.9c0.6,0.6,0.9,1.6,0.9,2.9
								C111.4,36.2,111.4,36.4,111.4,36.5z M109.5,35.4c0-1-0.5-1.6-1.6-1.6c-1,0-1.5,0.5-1.6,1.6H109.5z"/>
							<path class="st7" d="M112.8,40.6c0.2,0,0.4,0,0.5,0c0.9,0,1.2-0.3,1.4-0.8c0.1-0.2,0.1-0.3,0.1-0.5c0-0.1,0-0.3-0.1-0.5
								l-2.6-6.5h2.1l1.7,4.6l1.7-4.6h2.1l-2.9,7.2c-0.8,2-1.6,2.7-3.2,2.7c-0.2,0-0.4,0-0.7,0V40.6z"/>
							<path class="st7" d="M49.4,44.1H50v6.6h-0.6V44.1z"/>
							<path class="st7" d="M57.3,47.7v3h-0.6v-2.9c0-1-0.4-1.6-1.4-1.6c-1,0-1.6,0.6-1.6,1.6v2.9h-0.6v-4.9h0.6v0.9
								c0.1-0.4,0.7-1,1.7-1C56.6,45.7,57.3,46.3,57.3,47.7z"/>
							<path class="st7" d="M60.1,45.8h0.6l1.7,4.3h0l1.7-4.3h0.6l-1.9,4.9H62L60.1,45.8z"/>
							<path class="st7" d="M71.4,48.4h-3.8c0,1.2,0.7,1.9,1.8,1.9c0.8,0,1.3-0.3,1.5-0.9h0.5c-0.3,0.9-1,1.4-2,1.4
								c-1.4,0-2.3-0.9-2.3-2.5c0-1.7,1-2.5,2.2-2.5c1.3,0,2.1,0.9,2.1,2.4C71.4,48.2,71.4,48.3,71.4,48.4z M70.9,47.9
								c0-1.2-0.6-1.8-1.6-1.8c-1,0-1.6,0.6-1.7,1.8H70.9z"/>
							<path class="st7" d="M74.2,49.3h0.5c0.1,0.7,0.7,1,1.5,1c0.8,0,1.3-0.3,1.3-1c0-0.5-0.3-0.7-1-0.9l-0.9-0.2
								c-0.8-0.2-1.3-0.6-1.3-1.3c0-0.8,0.7-1.3,1.8-1.3c1,0,1.8,0.4,1.8,1.4h-0.5c-0.1-0.6-0.6-0.9-1.3-0.9c-0.8,0-1.2,0.3-1.2,0.8
								c0,0.4,0.3,0.7,0.9,0.8l0.9,0.2c0.9,0.2,1.4,0.5,1.4,1.3c0,0.5-0.2,0.9-0.6,1.1c-0.4,0.2-0.8,0.3-1.4,0.3
								C75.1,50.7,74.3,50.2,74.2,49.3z"/>
							<path class="st7" d="M83.2,50.2v0.4c-0.1,0-0.3,0-0.4,0c-0.8,0-1.2-0.4-1.2-1.1v-3.4h-0.8v-0.5h0.8v-1.2h0.6v1.2h1v0.5h-1
								v3.2c0,0.6,0.2,0.8,0.8,0.8H83.2z"/>
							<path class="st7" d="M93.2,47.7v3h-0.6v-2.9c0-1-0.4-1.6-1.3-1.6c-0.9,0-1.4,0.6-1.4,1.6v2.9h-0.6v-2.9c0-1-0.4-1.6-1.3-1.6
								c-0.9,0-1.4,0.6-1.4,1.6v2.9h-0.6v-4.9h0.6v0.9c0.1-0.4,0.6-1,1.6-1c0.7,0,1.3,0.3,1.5,1.1c0.1-0.3,0.3-0.5,0.6-0.7
								c0.3-0.2,0.6-0.3,1.1-0.3C92.5,45.7,93.2,46.3,93.2,47.7z"/>
							<path class="st7" d="M100.6,48.4h-3.8c0,1.2,0.7,1.9,1.8,1.9c0.8,0,1.3-0.3,1.5-0.9h0.5c-0.3,0.9-1,1.4-2,1.4
								c-1.4,0-2.3-0.9-2.3-2.5c0-1.7,1-2.5,2.2-2.5c1.3,0,2.1,0.9,2.1,2.4C100.6,48.2,100.6,48.3,100.6,48.4z M100.1,47.9
								c0-1.2-0.6-1.8-1.6-1.8c-1,0-1.6,0.6-1.7,1.8H100.1z"/>
							<path class="st7" d="M107.7,47.7v3h-0.6v-2.9c0-1-0.4-1.6-1.4-1.6c-1,0-1.6,0.6-1.6,1.6v2.9h-0.6v-4.9h0.6v0.9
								c0.1-0.4,0.7-1,1.7-1C107,45.7,107.7,46.3,107.7,47.7z"/>
							<path class="st7" d="M113,50.2v0.4c-0.1,0-0.3,0-0.4,0c-0.8,0-1.2-0.4-1.2-1.1v-3.4h-0.8v-0.5h0.8v-1.2h0.6v1.2h1v0.5h-1v3.2
								c0,0.6,0.2,0.8,0.8,0.8H113z"/>
							<path class="st7" d="M115.7,49.3h0.5c0.1,0.7,0.7,1,1.5,1c0.8,0,1.3-0.3,1.3-1c0-0.5-0.3-0.7-1-0.9l-0.9-0.2
								c-0.8-0.2-1.3-0.6-1.3-1.3c0-0.8,0.7-1.3,1.8-1.3s1.8,0.4,1.8,1.4H119c-0.1-0.6-0.6-0.9-1.3-0.9c-0.8,0-1.2,0.3-1.2,0.8
								c0,0.4,0.3,0.7,0.9,0.8l0.9,0.2c0.9,0.2,1.4,0.5,1.4,1.3c0,0.5-0.2,0.9-0.6,1.1c-0.4,0.2-0.8,0.3-1.4,0.3
								C116.6,50.7,115.8,50.2,115.7,49.3z"/>
						</g>
						<g>
							<path class="st7" d="M53.3,29.9c2.1,0,3.1,0.9,3.1,2.4c0,1-0.5,1.6-1.4,1.9c1.4,0.4,2,1.3,2,2.5c0,1.7-1.2,2.8-3.6,2.8h-4.1
								v-9.6H53.3z M53.2,33.9c0.7,0,1.1-0.4,1.1-1.1c0-0.7-0.5-1.1-1.1-1.1h-1.8v2.2H53.2z M53.4,37.8c1.1,0,1.6-0.6,1.6-1.3
								c0-0.8-0.5-1.4-1.6-1.4h-1.9v2.7H53.4z"/>
							<path class="st7" d="M65.4,36.5h-5c0.1,1.2,0.7,1.7,1.8,1.7c0.8,0,1.2-0.3,1.4-1h1.8c-0.3,1.6-1.6,2.5-3.3,2.5
								c-1.9,0-3.6-1.1-3.6-3.7c0-2.6,1.6-3.7,3.6-3.7c1,0,1.8,0.3,2.5,0.9c0.6,0.6,0.9,1.6,0.9,2.9C65.4,36.2,65.4,36.4,65.4,36.5z
								 M63.5,35.4c0-1-0.5-1.6-1.6-1.6c-1,0-1.5,0.5-1.6,1.6H63.5z"/>
							<path class="st7" d="M71,38.1v1.6c-0.3,0-0.6,0-1.1,0c-1.5,0-2.4-0.7-2.4-2.2V34h-1.2v-1.5h1.2v-1.8h2v1.8h1.4V34h-1.4v3.2
								c0,0.6,0.3,0.9,0.8,0.9H71z"/>
							<path class="st7" d="M78.7,34.6v4.9h-1.9v-1.3h-0.1c-0.1,0.5-0.8,1.4-2.3,1.4c-0.6,0-1.2-0.2-1.6-0.5
								c-0.5-0.3-0.7-0.8-0.7-1.5c0-1.4,1-1.9,2.5-2l1.4-0.2c0.6-0.1,0.7-0.2,0.7-0.7v-0.1c0-0.7-0.4-1-1.1-1
								c-0.8,0-1.2,0.3-1.2,0.9v0.1l-1.9,0v-0.3c0-1.5,1-2.2,3.1-2.2C77.8,32.3,78.7,33,78.7,34.6z M76.7,36.3
								c-0.1,0.1-0.3,0.2-0.7,0.2l-0.9,0.1c-0.6,0.1-1,0.3-1,0.8c0,0.4,0.3,0.8,1.1,0.8c1,0,1.5-0.6,1.5-1.2V36.3z"/>
							<path class="st7" d="M79.8,32.4h2l1.8,5.2h0.1l1.8-5.2h2L85,39.6h-2.5L79.8,32.4z"/>
							<path class="st7" d="M94.8,34.6v4.9h-1.9v-1.3h-0.1c-0.1,0.5-0.8,1.4-2.3,1.4c-0.6,0-1.2-0.2-1.6-0.5
								c-0.5-0.3-0.7-0.8-0.7-1.5c0-1.4,1-1.9,2.5-2l1.4-0.2c0.6-0.1,0.7-0.2,0.7-0.7v-0.1c0-0.7-0.4-1-1.1-1
								c-0.8,0-1.2,0.3-1.2,0.9v0.1l-1.9,0v-0.3c0-1.5,1-2.2,3.1-2.2C93.9,32.3,94.8,33,94.8,34.6z M92.8,36.3
								c-0.1,0.1-0.3,0.2-0.7,0.2l-0.9,0.1c-0.6,0.1-1,0.3-1,0.8c0,0.4,0.3,0.8,1.1,0.8c1,0,1.5-0.6,1.5-1.2V36.3z"/>
							<path class="st7" d="M96.8,29.9h2v9.6h-2V29.9z"/>
							<path class="st7" d="M100.8,29.9h2v9.6h-2V29.9z"/>
							<path class="st7" d="M111.4,36.5h-5c0.1,1.2,0.7,1.7,1.8,1.7c0.8,0,1.2-0.3,1.4-1h1.8c-0.3,1.6-1.6,2.5-3.3,2.5
								c-1.9,0-3.6-1.1-3.6-3.7c0-2.6,1.6-3.7,3.6-3.7c1,0,1.8,0.3,2.5,0.9c0.6,0.6,0.9,1.6,0.9,2.9
								C111.4,36.2,111.4,36.4,111.4,36.5z M109.5,35.4c0-1-0.5-1.6-1.6-1.6c-1,0-1.5,0.5-1.6,1.6H109.5z"/>
							<path class="st7" d="M112.8,40.6c0.2,0,0.4,0,0.5,0c0.9,0,1.2-0.3,1.4-0.8c0.1-0.2,0.1-0.3,0.1-0.5c0-0.1,0-0.3-0.1-0.5
								l-2.6-6.5h2.1l1.7,4.6l1.7-4.6h2.1l-2.9,7.2c-0.8,2-1.6,2.7-3.2,2.7c-0.2,0-0.4,0-0.7,0V40.6z"/>
							<path class="st7" d="M49.4,44.1H50v6.6h-0.6V44.1z"/>
							<path class="st7" d="M57.3,47.7v3h-0.6v-2.9c0-1-0.4-1.6-1.4-1.6c-1,0-1.6,0.6-1.6,1.6v2.9h-0.6v-4.9h0.6v0.9
								c0.1-0.4,0.7-1,1.7-1C56.6,45.7,57.3,46.3,57.3,47.7z"/>
							<path class="st7" d="M60.1,45.8h0.6l1.7,4.3h0l1.7-4.3h0.6l-1.9,4.9H62L60.1,45.8z"/>
							<path class="st7" d="M71.4,48.4h-3.8c0,1.2,0.7,1.9,1.8,1.9c0.8,0,1.3-0.3,1.5-0.9h0.5c-0.3,0.9-1,1.4-2,1.4
								c-1.4,0-2.3-0.9-2.3-2.5c0-1.7,1-2.5,2.2-2.5c1.3,0,2.1,0.9,2.1,2.4C71.4,48.2,71.4,48.3,71.4,48.4z M70.9,47.9
								c0-1.2-0.6-1.8-1.6-1.8c-1,0-1.6,0.6-1.7,1.8H70.9z"/>
							<path class="st7" d="M74.2,49.3h0.5c0.1,0.7,0.7,1,1.5,1c0.8,0,1.3-0.3,1.3-1c0-0.5-0.3-0.7-1-0.9l-0.9-0.2
								c-0.8-0.2-1.3-0.6-1.3-1.3c0-0.8,0.7-1.3,1.8-1.3c1,0,1.8,0.4,1.8,1.4h-0.5c-0.1-0.6-0.6-0.9-1.3-0.9c-0.8,0-1.2,0.3-1.2,0.8
								c0,0.4,0.3,0.7,0.9,0.8l0.9,0.2c0.9,0.2,1.4,0.5,1.4,1.3c0,0.5-0.2,0.9-0.6,1.1c-0.4,0.2-0.8,0.3-1.4,0.3
								C75.1,50.7,74.3,50.2,74.2,49.3z"/>
							<path class="st7" d="M83.2,50.2v0.4c-0.1,0-0.3,0-0.4,0c-0.8,0-1.2-0.4-1.2-1.1v-3.4h-0.8v-0.5h0.8v-1.2h0.6v1.2h1v0.5h-1
								v3.2c0,0.6,0.2,0.8,0.8,0.8H83.2z"/>
							<path class="st7" d="M93.2,47.7v3h-0.6v-2.9c0-1-0.4-1.6-1.3-1.6c-0.9,0-1.4,0.6-1.4,1.6v2.9h-0.6v-2.9c0-1-0.4-1.6-1.3-1.6
								c-0.9,0-1.4,0.6-1.4,1.6v2.9h-0.6v-4.9h0.6v0.9c0.1-0.4,0.6-1,1.6-1c0.7,0,1.3,0.3,1.5,1.1c0.1-0.3,0.3-0.5,0.6-0.7
								c0.3-0.2,0.6-0.3,1.1-0.3C92.5,45.7,93.2,46.3,93.2,47.7z"/>
							<path class="st7" d="M100.6,48.4h-3.8c0,1.2,0.7,1.9,1.8,1.9c0.8,0,1.3-0.3,1.5-0.9h0.5c-0.3,0.9-1,1.4-2,1.4
								c-1.4,0-2.3-0.9-2.3-2.5c0-1.7,1-2.5,2.2-2.5c1.3,0,2.1,0.9,2.1,2.4C100.6,48.2,100.6,48.3,100.6,48.4z M100.1,47.9
								c0-1.2-0.6-1.8-1.6-1.8c-1,0-1.6,0.6-1.7,1.8H100.1z"/>
							<path class="st7" d="M107.7,47.7v3h-0.6v-2.9c0-1-0.4-1.6-1.4-1.6c-1,0-1.6,0.6-1.6,1.6v2.9h-0.6v-4.9h0.6v0.9
								c0.1-0.4,0.7-1,1.7-1C107,45.7,107.7,46.3,107.7,47.7z"/>
							<path class="st7" d="M113,50.2v0.4c-0.1,0-0.3,0-0.4,0c-0.8,0-1.2-0.4-1.2-1.1v-3.4h-0.8v-0.5h0.8v-1.2h0.6v1.2h1v0.5h-1v3.2
								c0,0.6,0.2,0.8,0.8,0.8H113z"/>
							<path class="st7" d="M115.7,49.3h0.5c0.1,0.7,0.7,1,1.5,1c0.8,0,1.3-0.3,1.3-1c0-0.5-0.3-0.7-1-0.9l-0.9-0.2
								c-0.8-0.2-1.3-0.6-1.3-1.3c0-0.8,0.7-1.3,1.8-1.3s1.8,0.4,1.8,1.4H119c-0.1-0.6-0.6-0.9-1.3-0.9c-0.8,0-1.2,0.3-1.2,0.8
								c0,0.4,0.3,0.7,0.9,0.8l0.9,0.2c0.9,0.2,1.4,0.5,1.4,1.3c0,0.5-0.2,0.9-0.6,1.1c-0.4,0.2-0.8,0.3-1.4,0.3
								C116.6,50.7,115.8,50.2,115.7,49.3z"/>
						</g>
						<g>
							<path class="st7" d="M53.3,29.9c2.1,0,3.1,0.9,3.1,2.4c0,1-0.5,1.6-1.4,1.9c1.4,0.4,2,1.3,2,2.5c0,1.7-1.2,2.8-3.6,2.8h-4.1
								v-9.6H53.3z M53.2,33.9c0.7,0,1.1-0.4,1.1-1.1c0-0.7-0.5-1.1-1.1-1.1h-1.8v2.2H53.2z M53.4,37.8c1.1,0,1.6-0.6,1.6-1.3
								c0-0.8-0.5-1.4-1.6-1.4h-1.9v2.7H53.4z"/>
							<path class="st7" d="M65.4,36.5h-5c0.1,1.2,0.7,1.7,1.8,1.7c0.8,0,1.2-0.3,1.4-1h1.8c-0.3,1.6-1.6,2.5-3.3,2.5
								c-1.9,0-3.6-1.1-3.6-3.7c0-2.6,1.6-3.7,3.6-3.7c1,0,1.8,0.3,2.5,0.9c0.6,0.6,0.9,1.6,0.9,2.9C65.4,36.2,65.4,36.4,65.4,36.5z
								 M63.5,35.4c0-1-0.5-1.6-1.6-1.6c-1,0-1.5,0.5-1.6,1.6H63.5z"/>
							<path class="st7" d="M71,38.1v1.6c-0.3,0-0.6,0-1.1,0c-1.5,0-2.4-0.7-2.4-2.2V34h-1.2v-1.5h1.2v-1.8h2v1.8h1.4V34h-1.4v3.2
								c0,0.6,0.3,0.9,0.8,0.9H71z"/>
							<path class="st7" d="M78.7,34.6v4.9h-1.9v-1.3h-0.1c-0.1,0.5-0.8,1.4-2.3,1.4c-0.6,0-1.2-0.2-1.6-0.5
								c-0.5-0.3-0.7-0.8-0.7-1.5c0-1.4,1-1.9,2.5-2l1.4-0.2c0.6-0.1,0.7-0.2,0.7-0.7v-0.1c0-0.7-0.4-1-1.1-1
								c-0.8,0-1.2,0.3-1.2,0.9v0.1l-1.9,0v-0.3c0-1.5,1-2.2,3.1-2.2C77.8,32.3,78.7,33,78.7,34.6z M76.7,36.3
								c-0.1,0.1-0.3,0.2-0.7,0.2l-0.9,0.1c-0.6,0.1-1,0.3-1,0.8c0,0.4,0.3,0.8,1.1,0.8c1,0,1.5-0.6,1.5-1.2V36.3z"/>
							<path class="st7" d="M79.8,32.4h2l1.8,5.2h0.1l1.8-5.2h2L85,39.6h-2.5L79.8,32.4z"/>
							<path class="st7" d="M94.8,34.6v4.9h-1.9v-1.3h-0.1c-0.1,0.5-0.8,1.4-2.3,1.4c-0.6,0-1.2-0.2-1.6-0.5
								c-0.5-0.3-0.7-0.8-0.7-1.5c0-1.4,1-1.9,2.5-2l1.4-0.2c0.6-0.1,0.7-0.2,0.7-0.7v-0.1c0-0.7-0.4-1-1.1-1
								c-0.8,0-1.2,0.3-1.2,0.9v0.1l-1.9,0v-0.3c0-1.5,1-2.2,3.1-2.2C93.9,32.3,94.8,33,94.8,34.6z M92.8,36.3
								c-0.1,0.1-0.3,0.2-0.7,0.2l-0.9,0.1c-0.6,0.1-1,0.3-1,0.8c0,0.4,0.3,0.8,1.1,0.8c1,0,1.5-0.6,1.5-1.2V36.3z"/>
							<path class="st7" d="M96.8,29.9h2v9.6h-2V29.9z"/>
							<path class="st7" d="M100.8,29.9h2v9.6h-2V29.9z"/>
							<path class="st7" d="M111.4,36.5h-5c0.1,1.2,0.7,1.7,1.8,1.7c0.8,0,1.2-0.3,1.4-1h1.8c-0.3,1.6-1.6,2.5-3.3,2.5
								c-1.9,0-3.6-1.1-3.6-3.7c0-2.6,1.6-3.7,3.6-3.7c1,0,1.8,0.3,2.5,0.9c0.6,0.6,0.9,1.6,0.9,2.9
								C111.4,36.2,111.4,36.4,111.4,36.5z M109.5,35.4c0-1-0.5-1.6-1.6-1.6c-1,0-1.5,0.5-1.6,1.6H109.5z"/>
							<path class="st7" d="M112.8,40.6c0.2,0,0.4,0,0.5,0c0.9,0,1.2-0.3,1.4-0.8c0.1-0.2,0.1-0.3,0.1-0.5c0-0.1,0-0.3-0.1-0.5
								l-2.6-6.5h2.1l1.7,4.6l1.7-4.6h2.1l-2.9,7.2c-0.8,2-1.6,2.7-3.2,2.7c-0.2,0-0.4,0-0.7,0V40.6z"/>
							<path class="st7" d="M49.4,44.1H50v6.6h-0.6V44.1z"/>
							<path class="st7" d="M57.3,47.7v3h-0.6v-2.9c0-1-0.4-1.6-1.4-1.6c-1,0-1.6,0.6-1.6,1.6v2.9h-0.6v-4.9h0.6v0.9
								c0.1-0.4,0.7-1,1.7-1C56.6,45.7,57.3,46.3,57.3,47.7z"/>
							<path class="st7" d="M60.1,45.8h0.6l1.7,4.3h0l1.7-4.3h0.6l-1.9,4.9H62L60.1,45.8z"/>
							<path class="st7" d="M71.4,48.4h-3.8c0,1.2,0.7,1.9,1.8,1.9c0.8,0,1.3-0.3,1.5-0.9h0.5c-0.3,0.9-1,1.4-2,1.4
								c-1.4,0-2.3-0.9-2.3-2.5c0-1.7,1-2.5,2.2-2.5c1.3,0,2.1,0.9,2.1,2.4C71.4,48.2,71.4,48.3,71.4,48.4z M70.9,47.9
								c0-1.2-0.6-1.8-1.6-1.8c-1,0-1.6,0.6-1.7,1.8H70.9z"/>
							<path class="st7" d="M74.2,49.3h0.5c0.1,0.7,0.7,1,1.5,1c0.8,0,1.3-0.3,1.3-1c0-0.5-0.3-0.7-1-0.9l-0.9-0.2
								c-0.8-0.2-1.3-0.6-1.3-1.3c0-0.8,0.7-1.3,1.8-1.3c1,0,1.8,0.4,1.8,1.4h-0.5c-0.1-0.6-0.6-0.9-1.3-0.9c-0.8,0-1.2,0.3-1.2,0.8
								c0,0.4,0.3,0.7,0.9,0.8l0.9,0.2c0.9,0.2,1.4,0.5,1.4,1.3c0,0.5-0.2,0.9-0.6,1.1c-0.4,0.2-0.8,0.3-1.4,0.3
								C75.1,50.7,74.3,50.2,74.2,49.3z"/>
							<path class="st7" d="M83.2,50.2v0.4c-0.1,0-0.3,0-0.4,0c-0.8,0-1.2-0.4-1.2-1.1v-3.4h-0.8v-0.5h0.8v-1.2h0.6v1.2h1v0.5h-1
								v3.2c0,0.6,0.2,0.8,0.8,0.8H83.2z"/>
							<path class="st7" d="M93.2,47.7v3h-0.6v-2.9c0-1-0.4-1.6-1.3-1.6c-0.9,0-1.4,0.6-1.4,1.6v2.9h-0.6v-2.9c0-1-0.4-1.6-1.3-1.6
								c-0.9,0-1.4,0.6-1.4,1.6v2.9h-0.6v-4.9h0.6v0.9c0.1-0.4,0.6-1,1.6-1c0.7,0,1.3,0.3,1.5,1.1c0.1-0.3,0.3-0.5,0.6-0.7
								c0.3-0.2,0.6-0.3,1.1-0.3C92.5,45.7,93.2,46.3,93.2,47.7z"/>
							<path class="st7" d="M100.6,48.4h-3.8c0,1.2,0.7,1.9,1.8,1.9c0.8,0,1.3-0.3,1.5-0.9h0.5c-0.3,0.9-1,1.4-2,1.4
								c-1.4,0-2.3-0.9-2.3-2.5c0-1.7,1-2.5,2.2-2.5c1.3,0,2.1,0.9,2.1,2.4C100.6,48.2,100.6,48.3,100.6,48.4z M100.1,47.9
								c0-1.2-0.6-1.8-1.6-1.8c-1,0-1.6,0.6-1.7,1.8H100.1z"/>
							<path class="st7" d="M107.7,47.7v3h-0.6v-2.9c0-1-0.4-1.6-1.4-1.6c-1,0-1.6,0.6-1.6,1.6v2.9h-0.6v-4.9h0.6v0.9
								c0.1-0.4,0.7-1,1.7-1C107,45.7,107.7,46.3,107.7,47.7z"/>
							<path class="st7" d="M113,50.2v0.4c-0.1,0-0.3,0-0.4,0c-0.8,0-1.2-0.4-1.2-1.1v-3.4h-0.8v-0.5h0.8v-1.2h0.6v1.2h1v0.5h-1v3.2
								c0,0.6,0.2,0.8,0.8,0.8H113z"/>
							<path class="st7" d="M115.7,49.3h0.5c0.1,0.7,0.7,1,1.5,1c0.8,0,1.3-0.3,1.3-1c0-0.5-0.3-0.7-1-0.9l-0.9-0.2
								c-0.8-0.2-1.3-0.6-1.3-1.3c0-0.8,0.7-1.3,1.8-1.3s1.8,0.4,1.8,1.4H119c-0.1-0.6-0.6-0.9-1.3-0.9c-0.8,0-1.2,0.3-1.2,0.8
								c0,0.4,0.3,0.7,0.9,0.8l0.9,0.2c0.9,0.2,1.4,0.5,1.4,1.3c0,0.5-0.2,0.9-0.6,1.1c-0.4,0.2-0.8,0.3-1.4,0.3
								C116.6,50.7,115.8,50.2,115.7,49.3z"/>
						</g>
					</g>
				</g>
			</g>
		</g>
	</g>
	<g>
		<path class="st7" d="M74.6,22.3h-1.2h-0.6h-1.1h-0.5h-0.9h-0.5H69h-0.5h-0.9h-2.9h-0.9h-0.5h-0.9h-0.5h-0.6v-1.9c0-2.1-1-3-3.2-3
			c-1.4,0-2.6,0.2-2.7,0.3l-0.1,0v4.7h-0.7c-2.2,0-3.1-0.7-3.1-2.5c0-0.7,0.2-1.5,0.4-2.1l0.1-0.3l-2.2,0.4l0,0.1
			c-0.2,0.6-0.3,1.4-0.3,2.1c0,2.7,1.6,4,4.9,4h2.9v-4.9c0.2,0,0.4-0.1,0.7-0.1c1,0,1.3,0.4,1.3,1.5V24h2.6h0.5h0.9h0.5h0.9h2.9h0.9
			H69h0.9h0.5h0.9h0.5h1.1h0.6h3.2v-9.5h-2V22.3z"/>
		<path class="st7" d="M89.8,17.4c-2.5,0-3.6,1.7-3.6,3.3c0,0.7,0.1,1.2,0.4,1.6c-0.1,0-0.2,0-0.3,0h-0.9v0h-0.9h-0.6h-0.8h-0.5
			h-0.9h-0.5h-0.8v-7.8h-2V24h2.8h0.5h0.9h0.5h0.8h0.6h1.4v0h6.9v-3.5C92.9,18.5,91.8,17.4,89.8,17.4z M90.9,20.7v1.6H90
			c-1.2,0-1.8-0.5-1.8-1.7c0-1,0.5-1.6,1.4-1.6C90.5,19,90.9,19.6,90.9,20.7z"/>
		<polygon class="st7" points="117.6,17.5 117.6,22.3 116.3,22.3 115.8,22.3 113.5,22.3 113,22.3 112.2,22.3 112.2,17.5 110.2,17.5 
			110.2,22.3 108.2,22.3 107.7,22.3 106.8,22.3 106.3,22.3 106.8,22.3 106.3,22.3 105.4,22.3 104.9,22.3 104.3,22.3 104.3,17.5 
			102.2,17.5 102.2,22.3 100.9,22.3 100.4,22.3 99.5,22.3 101.5,22.3 100.5,22.3 100.1,22.3 99.1,22.3 98.7,22.3 97.8,22.3 
			97.2,22.3 96.5,22.3 96.5,14.5 94.4,14.5 94.4,24 97.2,24 97.8,24 98.7,24 99.1,24 100.1,24 100.5,24 101.5,24 99.5,24 100.4,24 
			100.9,24 104.9,24 105.4,24 106.3,24 106.8,24 106.3,24 106.8,24 107.7,24 108.2,24 113,24 113.5,24 115.8,24 116.3,24 119.7,24 
			119.7,17.5 		"/>
		<polygon class="st7" points="54,25.7 52.9,24.7 51.8,25.8 52.9,26.9 54,25.8 55.1,26.9 56.2,25.8 55.1,24.7 		"/>
		<rect x="116.9" y="25" transform="matrix(0.7071 -0.7071 0.7071 0.7071 16.2441 90.7629)" class="st7" width="1.6" height="1.6"/>
		<polygon class="st7" points="110,25.7 109,24.7 107.9,25.8 109,26.9 110,25.8 111.1,26.9 112.2,25.8 111.1,24.7 		"/>
		<polygon class="st7" points="103,15.8 104.1,16.9 105.2,15.8 104.1,14.7 103,15.8 101.9,14.7 100.8,15.8 101.9,16.9 		"/>
		<polygon class="st7" points="89.6,15.8 90.7,16.9 91.8,15.8 90.7,14.7 89.6,15.8 88.5,14.7 87.4,15.8 88.5,16.9 		"/>
		
			<rect x="88.8" y="13.2" transform="matrix(0.7071 -0.7071 0.7071 0.7071 16.3712 67.4374)" class="st7" width="1.6" height="1.6"/>
	</g>
</g>
</svg>
